# xmcd
#
# Track frame offsets: 
#        150
#        15175
#        28178
#        41915
#        53233
#        68911
#        85108
#        100194
#        114343
#        127301
#        144601
#        157599
#        168738
#        182847
#        196971
#        214702
#        230059
#        244787
#        269686
#        287449
#
# Disc length: 4138 seconds
#
# Revision: 0
# Processed by: cddbd v1.5.2PL0 Copyright (c) Steve Scherf et al.
# Submitted via: ExactAudioCopy v0.95b4
#
DISCID=21102814
DTITLE=Jacques Renault - Mystery Mix #1
DYEAR=2006
DGENRE=
TTITLE0=B.W.H. - Livin Up
TTITLE1=One Two Three - Runaway (Instrumental)
TTITLE2=Gino Soccio - Remember
TTITLE3=Trilogy - Not Love (Instrumental)
TTITLE4=The Nuck Straker Band - A Little Bit Of Jazz
TTITLE5=Lindstrom - Er Bestemor Paa Moten
TTITLE6=Tony Cook and The Party People - On The Floor (Rock-It)
TTITLE7=Detroit Grand Pubahs - Big Onion (Joakim "Slap On It" Remix)
TTITLE8=Electric Mind - Zwei (Dub Version)
TTITLE9=Mya and The Mirror - Hesitation
TTITLE10=My Mine - Hypnotic Tango (Instrumental)
TTITLE11=Photocall - Silver Clouds (Hot Version)
TTITLE12=Liz Torres ft. Edward Crosby - Can't Get Enough (Dub)
TTITLE13=Mu - Paris Hilton
TTITLE14=Matzo and Pauli - Untitled
TTITLE15=Skatt Bros. - Walk The Night
TTITLE16=Prins Thomas - Diskomiks
TTITLE17=Delia Gonzalez and Gavin Russom - Rise (DFA Remix)
TTITLE18=Shirley Lites - Heat You Up (Melt You Down) (Melt Down Mix)
TTITLE19=Shelley - Give It To Me
EXTD=
EXTT0=
EXTT1=
EXTT2=
EXTT3=
EXTT4=
EXTT5=
EXTT6=
EXTT7=
EXTT8=
EXTT9=
EXTT10=
EXTT11=
EXTT12=
EXTT13=
EXTT14=
EXTT15=
EXTT16=
EXTT17=
EXTT18=
EXTT19=
PLAYORDER=
